PsfTest-Italic.ufo
<glyph name="ExclamationMrk" format="2">
  <advance width="744"/>
  <unicode hex="0021"/>
  <outline>
    <contour>
      <point x="497" y="431" type="line"/>
      <point x="574" y="715"/>
      <point x="653" y="1054"/>
      <point x="799" y="1480" type="curve"/>
      <point x="544" y="1480" type="line"/>
      <point x="475" y="1054"/>
      <point x="386" y="715"/>
      <point x="322" y="431" type="curve"/>
    </contour>
    <contour>
      <point x="188" y="90" type="curve" smooth="yes"/>
      <point x="188" y="28"/>
      <point x="238" y="-25"/>
      <point x="303" y="-25" type="curve" smooth="yes"/>
      <point x="387" y="-25"/>
      <point x="464" y="45"/>
      <point x="464" y="125" type="curve" smooth="yes"/>
      <point x="464" y="186"/>
      <point x="414" y="240"/>
      <point x="349" y="240" type="curve" smooth="yes"/>
      <point x="265" y="240"/>
      <point x="188" y="170"/>
    </contour>
  </outline>
</glyph>
<glyph name="QuotMrk" format="2">
  <advance width="1005"/>
  <unicode hex="0022"/>
  <outline>
    <contour>
      <point x="600" y="1024" type="line"/>
      <point x="639" y="1162"/>
      <point x="683" y="1312"/>
      <point x="772" y="1553" type="curve"/>
      <point x="567" y="1553" type="line"/>
      <point x="538" y="1312"/>
      <point x="505" y="1162"/>
      <point x="475" y="1024" type="curve"/>
    </contour>
    <contour>
      <point x="940" y="1024" type="line"/>
      <point x="979" y="1162"/>
      <point x="1023" y="1312"/>
      <point x="1112" y="1553" type="curve"/>
      <point x="907" y="1553" type="line"/>
      <point x="878" y="1312"/>
      <point x="845" y="1162"/>
      <point x="815" y="1024" type="curve"/>
    </contour>
  </outline>
</glyph>
<glyph name="NumSgn" format="2">
  <advance width="1180"/>
  <unicode hex="0023"/>
  <outline>
    <contour>
      <point x="739" y="1333" type="line"/>
      <point x="91" y="98" type="line"/>
      <point x="261" y="98" type="line"/>
      <point x="909" y="1333" type="line"/>
    </contour>
    <contour>
      <point x="80" y="465" type="line"/>
      <point x="1171" y="465" type="line"/>
      <point x="1208" y="612" type="line"/>
      <point x="117" y="612" type="line"/>
    </contour>
    <contour>
      <point x="234" y="843" type="line"/>
      <point x="1325" y="843" type="line"/>
      <point x="1361" y="990" type="line"/>
      <point x="270" y="990" type="line"/>
    </contour>
    <contour>
      <point x="1164" y="1333" type="line"/>
      <point x="516" y="98" type="line"/>
      <point x="686" y="98" type="line"/>
      <point x="1334" y="1333" type="line"/>
    </contour>
  </outline>
</glyph>
<glyph name="Ampersand" format="2">
  <advance width="1202"/>
  <unicode hex="0026"/>
  <outline>
    <contour>
      <point x="1054" y="559" type="line"/>
      <point x="949" y="395"/>
      <point x="616" y="147"/>
      <point x="441" y="147" type="curve" smooth="yes"/>
      <point x="318" y="147"/>
      <point x="256" y="224"/>
      <point x="256" y="314" type="curve" smooth="yes"/>
      <point x="256" y="453"/>
      <point x="369" y="575"/>
      <point x="590" y="725" type="curve" smooth="yes"/>
      <point x="836" y="892"/>
      <point x="1022" y="1067"/>
      <point x="1022" y="1223" type="curve" smooth="yes"/>
      <point x="1022" y="1363"/>
      <point x="894" y="1455"/>
      <point x="762" y="1455" type="curve" smooth="yes"/>
      <point x="504" y="1455"/>
      <point x="378" y="1328"/>
      <point x="378" y="1114" type="curve" smooth="yes"/>
      <point x="378" y="953"/>
      <point x="514" y="771"/>
      <point x="614" y="559" type="curve" smooth="yes"/>
      <point x="783" y="198"/>
      <point x="906" y="-25"/>
      <point x="958" y="-25" type="curve" smooth="yes"/>
      <point x="993" y="-25"/>
      <point x="1087" y="37"/>
      <point x="1132" y="69" type="curve"/>
      <point x="1046" y="108"/>
      <point x="926" y="291"/>
      <point x="756" y="666" type="curve" smooth="yes"/>
      <point x="665" y="866"/>
      <point x="544" y="1029"/>
      <point x="544" y="1149" type="curve" smooth="yes"/>
      <point x="544" y="1252"/>
      <point x="632" y="1323"/>
      <point x="724" y="1323" type="curve" smooth="yes"/>
      <point x="794" y="1323"/>
      <point x="858" y="1266"/>
      <point x="858" y="1193" type="curve" smooth="yes"/>
      <point x="858" y="1107"/>
      <point x="743" y="1004"/>
      <point x="492" y="826" type="curve" smooth="yes"/>
      <point x="182" y="606"/>
      <point x="73" y="439"/>
      <point x="73" y="288" type="curve" smooth="yes"/>
      <point x="73" y="113"/>
      <point x="195" y="-25"/>
      <point x="383" y="-25" type="curve" smooth="yes"/>
      <point x="656" y="-25"/>
      <point x="1009" y="269"/>
      <point x="1126" y="426" type="curve"/>
    </contour>
  </outline>
</glyph>
<glyph name="Asterisk" format="2">
  <advance width="1008"/>
  <unicode hex="002A"/>
  <outline>
    <contour>
      <point x="745" y="1568" type="line"/>
      <point x="733" y="1438"/>
      <point x="725" y="1359"/>
      <point x="707" y="1274" type="curve"/>
      <point x="644" y="1317"/>
      <point x="587" y="1359"/>
      <point x="498" y="1436" type="curve"/>
      <point x="392" y="1313" type="line"/>
      <point x="505" y="1264"/>
      <point x="575" y="1236"/>
      <point x="643" y="1196" type="curve"/>
      <point x="556" y="1153"/>
      <point x="474" y="1117"/>
      <point x="340" y="1063" type="curve"/>
      <point x="379" y="941" type="line"/>
      <point x="504" y="1021"/>
      <point x="584" y="1072"/>
      <point x="668" y="1117" type="curve"/>
      <point x="645" y="1034"/>
      <point x="619" y="954"/>
      <point x="575" y="823" type="curve"/>
      <point x="715" y="823" type="line"/>
      <point x="727" y="954"/>
      <point x="741" y="1031"/>
      <point x="758" y="1117" type="curve"/>
      <point x="821" y="1073"/>
      <point x="878" y="1032"/>
      <point x="968" y="956" type="curve"/>
      <point x="1073" y="1078" type="line"/>
      <point x="959" y="1126"/>
      <point x="890" y="1155"/>
      <point x="823" y="1196" type="curve"/>
      <point x="909" y="1236"/>
      <point x="990" y="1273"/>
      <point x="1126" y="1328" type="curve"/>
      <point x="1086" y="1450" type="line"/>
      <point x="961" y="1368"/>
      <point x="883" y="1321"/>
      <point x="797" y="1274" type="curve"/>
      <point x="819" y="1359"/>
      <point x="845" y="1438"/>
      <point x="890" y="1568" type="curve"/>
    </contour>
  </outline>
</glyph>
<glyph name="PlusSgn" format="2">
  <advance width="1180"/>
  <unicode hex="002B"/>
  <outline>
    <contour>
      <point x="748" y="1156" type="line"/>
      <point x="529" y="279" type="line"/>
      <point x="684" y="279" type="line"/>
      <point x="903" y="1156" type="line"/>
    </contour>
    <contour>
      <point x="256" y="647" type="line"/>
      <point x="1146" y="647" type="line"/>
      <point x="1182" y="794" type="line"/>
      <point x="292" y="794" type="line"/>
    </contour>
  </outline>
</glyph>
<glyph name="Comma" format="2">
  <advance width="630"/>
  <unicode hex="002C"/>
  <outline>
    <contour>
      <point x="137" y="49" type="line"/>
      <point x="277" y="49" type="line"/>
      <point x="252" y="-50"/>
      <point x="145" y="-169"/>
      <point x="73" y="-225" type="curve"/>
      <point x="163" y="-265" type="line"/>
      <point x="280" y="-175"/>
      <point x="431" y="-28"/>
      <point x="431" y="118" type="curve" smooth="yes"/>
      <point x="431" y="193"/>
      <point x="378" y="245"/>
      <point x="311" y="245" type="curve" smooth="yes"/>
      <point x="254" y="245"/>
      <point x="190" y="209"/>
      <point x="161" y="147" type="curve"/>
    </contour>
  </outline>
</glyph>
<glyph name="Solidus" format="2">
  <advance width="980"/>
  <unicode hex="002F"/>
  <outline>
    <contour>
      <point x="1160" y="1568" type="line"/>
      <point x="-119" y="-240" type="line"/>
      <point x="50" y="-240" type="line"/>
      <point x="1330" y="1568" type="line"/>
    </contour>
  </outline>
</glyph>
<glyph name="DigitNine" format="2">
  <advance width="1180"/>
  <unicode hex="0039"/>
  <anchor x="515" y="-100" name="L"/>
  <anchor x="922" y="1530" name="U"/>
  <outline>
    <contour>
      <point x="157" y="94" type="line"/>
      <point x="208" y="29"/>
      <point x="355" y="-25"/>
      <point x="473" y="-25" type="curve" smooth="yes"/>
      <point x="999" y="-25"/>
      <point x="1267" y="520"/>
      <point x="1267" y="982" type="curve" smooth="yes"/>
      <point x="1267" y="1248"/>
      <point x="1127" y="1455"/>
      <point x="866" y="1455" type="curve" smooth="yes"/>
      <point x="596" y="1455"/>
      <point x="303" y="1269"/>
      <point x="303" y="932" type="curve" smooth="yes"/>
      <point x="303" y="761"/>
      <point x="425" y="574"/>
      <point x="661" y="574" type="curve" smooth="yes"/>
      <point x="852" y="574"/>
      <point x="1036" y="683"/>
      <point x="1172" y="840" type="curve"/>
      <point x="1121" y="922" type="line"/>
      <point x="1019" y="810"/>
      <point x="872" y="745"/>
      <point x="717" y="745" type="curve" smooth="yes"/>
      <point x="584" y="745"/>
      <point x="498" y="833"/>
      <point x="498" y="956" type="curve" smooth="yes"/>
      <point x="498" y="1146"/>
      <point x="638" y="1284"/>
      <point x="821" y="1284" type="curve" smooth="yes"/>
      <point x="998" y="1284"/>
      <point x="1073" y="1119"/>
      <point x="1073" y="956" type="curve" smooth="yes"/>
      <point x="1073" y="455"/>
      <point x="760" y="147"/>
      <point x="496" y="147" type="curve" smooth="yes"/>
      <point x="410" y="147"/>
      <point x="298" y="209"/>
      <point x="249" y="285" type="curve"/>
    </contour>
  </outline>
</glyph>
<glyph name="LTSgn" format="2">
  <advance width="1180"/>
  <unicode hex="003C"/>
  <outline>
    <contour>
      <point x="1123" y="417" type="line"/>
      <point x="408" y="705" type="line"/>
      <point x="1272" y="1014" type="line"/>
      <point x="1316" y="1191" type="line"/>
      <point x="239" y="799" type="line"/>
      <point x="197" y="632" type="line"/>
      <point x="1079" y="240" type="line"/>
    </contour>
  </outline>
</glyph>
<glyph name="EqSgn" format="2">
  <advance width="1180"/>
  <unicode hex="003D"/>
  <outline>
    <contour>
      <point x="177" y="470" type="line"/>
      <point x="1137" y="470" type="line"/>
      <point x="1173" y="617" type="line"/>
      <point x="213" y="617" type="line"/>
    </contour>
    <contour>
      <point x="262" y="813" type="line"/>
      <point x="1222" y="813" type="line"/>
      <point x="1259" y="960" type="line"/>
      <point x="299" y="960" type="line"/>
    </contour>
  </outline>
</glyph>
<glyph name="AtSgn" format="2">
  <advance width="1682"/>
  <unicode hex="0040"/>
  <outline>
    <contour>
      <point x="1082" y="-10" type="line"/>
      <point x="980" y="-69"/>
      <point x="889" y="-93"/>
      <point x="796" y="-93" type="curve" smooth="yes"/>
      <point x="507" y="-93"/>
      <point x="301" y="104"/>
      <point x="301" y="414" type="curve" smooth="yes"/>
      <point x="301" y="476"/>
      <point x="309" y="543"/>
      <point x="327" y="613" type="curve" smooth="yes"/>
      <point x="425" y="1003"/>
      <point x="782" y="1245"/>
      <point x="1110" y="1245" type="curve" smooth="yes"/>
      <point x="1433" y="1245"/>
      <point x="1590" y="1060"/>
      <point x="1590" y="813" type="curve" smooth="yes"/>
      <point x="1590" y="760"/>
      <point x="1582" y="705"/>
      <point x="1568" y="647" type="curve" smooth="yes"/>
      <point x="1510" y="413"/>
      <point x="1365" y="309"/>
      <point x="1297" y="309" type="curve" smooth="yes"/>
      <point x="1261" y="309"/>
      <point x="1238" y="344"/>
      <point x="1238" y="420" type="curve" smooth="yes"/>
      <point x="1238" y="468"/>
      <point x="1247" y="533"/>
      <point x="1268" y="617" type="curve" smooth="yes"/>
      <point x="1354" y="960" type="line"/>
      <point x="1276" y="995"/>
      <point x="1155" y="1019"/>
      <point x="1074" y="1019" type="curve" smooth="yes"/>
      <point x="910" y="1019"/>
      <point x="790" y="962"/>
      <point x="673" y="828" type="curve" smooth="yes"/>
      <point x="607" y="751"/>
      <point x="554" y="650"/>
      <point x="524" y="529" type="curve" smooth="yes"/>
      <point x="514" y="488"/>
      <point x="509" y="450"/>
      <point x="509" y="416" type="curve" smooth="yes"/>
      <point x="509" y="259"/>
      <point x="609" y="179"/>
      <point x="719" y="179" type="curve" smooth="yes"/>
      <point x="836" y="179"/>
      <point x="1017" y="359"/>
      <point x="1099" y="480" type="curve"/>
      <point x="1093" y="446"/>
      <point x="1089" y="413"/>
      <point x="1089" y="382" type="curve" smooth="yes"/>
      <point x="1089" y="264"/>
      <point x="1136" y="176"/>
      <point x="1233" y="176" type="curve" smooth="yes"/>
      <point x="1408" y="176"/>
      <point x="1635" y="331"/>
      <point x="1716" y="656" type="curve" smooth="yes"/>
      <point x="1732" y="722"/>
      <point x="1740" y="784"/>
      <point x="1740" y="843" type="curve" smooth="yes"/>
      <point x="1740" y="1161"/>
      <point x="1513" y="1377"/>
      <point x="1153" y="1377" type="curve" smooth="yes"/>
      <point x="738" y="1377"/>
      <point x="310" y="1143"/>
      <point x="175" y="603" type="curve" smooth="yes"/>
      <point x="155" y="522"/>
      <point x="145" y="446"/>
      <point x="145" y="375" type="curve" smooth="yes"/>
      <point x="145" y="-5"/>
      <point x="417" y="-230"/>
      <point x="747" y="-230" type="curve" smooth="yes"/>
      <point x="882" y="-230"/>
      <point x="1044" y="-184"/>
      <point x="1161" y="-116" type="curve"/>
    </contour>
    <contour>
      <point x="1141" y="706" type="line"/>
      <point x="1075" y="570"/>
      <point x="856" y="314"/>
      <point x="766" y="314" type="curve" smooth="yes"/>
      <point x="712" y="314"/>
      <point x="669" y="362"/>
      <point x="669" y="459" type="curve" smooth="yes"/>
      <point x="669" y="491"/>
      <point x="674" y="530"/>
      <point x="685" y="573" type="curve" smooth="yes"/>
      <point x="704" y="649"/>
      <point x="739" y="726"/>
      <point x="780" y="774" type="curve" smooth="yes"/>
      <point x="859" y="868"/>
      <point x="943" y="887"/>
      <point x="1011" y="887" type="curve" smooth="yes"/>
      <point x="1085" y="887"/>
      <point x="1148" y="868"/>
      <point x="1177" y="853" type="curve"/>
    </contour>
  </outline>
</glyph>
<glyph name="LtnCapB" format="2">
  <advance width="1271"/>
  <unicode hex="0042"/>
  <anchor x="530" y="-100" name="L"/>
  <anchor x="937" y="1530" name="U"/>
  <outline>
    <contour>
      <point x="625" y="1284" type="line"/>
      <point x="667" y="1286"/>
      <point x="733" y="1289"/>
      <point x="811" y="1289" type="curve" smooth="yes"/>
      <point x="993" y="1289"/>
      <point x="1080" y="1230"/>
      <point x="1080" y="1105" type="curve" smooth="yes"/>
      <point x="1080" y="932"/>
      <point x="931" y="838"/>
      <point x="698" y="838" type="curve" smooth="yes"/>
      <point x="513" y="838" type="line"/>
    </contour>
    <contour>
      <point x="226" y="446" type="line"/>
      <point x="178" y="252"/>
      <point x="134" y="78"/>
      <point x="100" y="0" type="curve"/>
      <point x="151" y="-5"/>
      <point x="359" y="-10"/>
      <point x="562" y="-10" type="curve" smooth="yes"/>
      <point x="960" y="-10"/>
      <point x="1201" y="149"/>
      <point x="1201" y="453" type="curve" smooth="yes"/>
      <point x="1201" y="644"/>
      <point x="1067" y="736"/>
      <point x="955" y="764" type="curve"/>
      <point x="1155" y="819"/>
      <point x="1283" y="941"/>
      <point x="1283" y="1140" type="curve" smooth="yes"/>
      <point x="1283" y="1310"/>
      <point x="1136" y="1441"/>
      <point x="869" y="1441" type="curve" smooth="yes"/>
      <point x="700" y="1441"/>
      <point x="546" y="1437"/>
      <point x="456" y="1431" type="curve"/>
      <point x="452" y="1352"/>
      <point x="407" y="1172"/>
      <point x="359" y="980" type="curve" smooth="yes"/>
    </contour>
    <contour>
      <point x="476" y="686" type="line"/>
      <point x="721" y="686" type="line" smooth="yes"/>
      <point x="892" y="686"/>
      <point x="1011" y="598"/>
      <point x="1011" y="450" type="curve" smooth="yes"/>
      <point x="1011" y="218"/>
      <point x="806" y="147"/>
      <point x="586" y="147" type="curve" smooth="yes"/>
      <point x="474" y="147"/>
      <point x="379" y="150"/>
      <point x="342" y="152" type="curve"/>
    </contour>
  </outline>
</glyph>
<glyph name="LtnCapC" format="2">
  <advance width="1341"/>
  <unicode hex="0043"/>
  <anchor x="690" y="0" name="H"/>
  <anchor x="665" y="-100" name="L"/>
  <anchor x="1072" y="1530" name="U"/>
  <outline>
    <contour>
      <point x="1237" y="318" type="line"/>
      <point x="1115" y="222"/>
      <point x="934" y="147"/>
      <point x="752" y="147" type="curve" smooth="yes"/>
      <point x="537" y="147"/>
      <point x="385" y="304"/>
      <point x="385" y="532" type="curve" smooth="yes"/>
      <point x="385" y="964"/>
      <point x="704" y="1289"/>
      <point x="1037" y="1289" type="curve" smooth="yes"/>
      <point x="1168" y="1289"/>
      <point x="1310" y="1235"/>
      <point x="1385" y="1132" type="curve"/>
      <point x="1489" y="1308" type="line"/>
      <point x="1388" y="1408"/>
      <point x="1201" y="1455"/>
      <point x="1058" y="1455" type="curve" smooth="yes"/>
      <point x="645" y="1455"/>
      <point x="185" y="1093"/>
      <point x="185" y="513" type="curve" smooth="yes"/>
      <point x="185" y="202"/>
      <point x="381" y="-25"/>
      <point x="709" y="-25" type="curve" smooth="yes"/>
      <point x="896" y="-25"/>
      <point x="1087" y="21"/>
      <point x="1230" y="127" type="curve"/>
    </contour>
  </outline>
</glyph>
<glyph name="LtnCapE" format="2">
  <advance width="1140"/>
  <unicode hex="0045"/>
  <anchor x="540" y="0" name="H"/>
  <anchor x="515" y="-100" name="L"/>
  <anchor x="857" y="0" name="O"/>
  <anchor x="1400" y="1200" name="R"/>
  <anchor x="922" y="1530" name="U"/>
  <outline>
    <contour>
      <point x="511" y="828" type="line"/>
      <point x="621" y="1269" type="line"/>
      <point x="1266" y="1269" type="line"/>
      <point x="1306" y="1431" type="line"/>
      <point x="456" y="1431" type="line"/>
      <point x="452" y="1352"/>
      <point x="413" y="1197"/>
      <point x="365" y="1005" type="curve" smooth="yes"/>
      <point x="221" y="426" type="line" smooth="yes"/>
      <point x="173" y="233"/>
      <point x="134" y="78"/>
      <point x="100" y="0" type="curve"/>
      <point x="980" y="0" type="line"/>
      <point x="1023" y="176" type="line"/>
      <point x="940" y="163"/>
      <point x="806" y="162"/>
      <point x="609" y="162" type="curve" smooth="yes"/>
      <point x="345" y="162" type="line"/>
      <point x="472" y="671" type="line"/>
      <point x="1042" y="671" type="line"/>
      <point x="1081" y="828" type="line"/>
    </contour>
  </outline>
</glyph>
<glyph name="LtnCapF" format="2">
  <advance width="1130"/>
  <unicode hex="0046"/>
  <anchor x="510" y="-100" name="L"/>
  <anchor x="917" y="1530" name="U"/>
  <outline>
    <contour>
      <point x="508" y="818" type="line"/>
      <point x="621" y="1269" type="line"/>
      <point x="1286" y="1269" type="line"/>
      <point x="1326" y="1431" type="line"/>
      <point x="456" y="1431" type="line"/>
      <point x="452" y="1352"/>
      <point x="412" y="1193"/>
      <point x="364" y="1000" type="curve" smooth="yes"/>
      <point x="221" y="426" type="line" smooth="yes"/>
      <point x="173" y="233"/>
      <point x="134" y="78"/>
      <point x="100" y="0" type="curve"/>
      <point x="320" y="0" type="line"/>
      <point x="323" y="76"/>
      <point x="362" y="232"/>
      <point x="411" y="426" type="curve" smooth="yes"/>
      <point x="470" y="662" type="line"/>
      <point x="1050" y="662" type="line"/>
      <point x="1088" y="818" type="line"/>
    </contour>
  </outline>
</glyph>
<glyph name="LtnCapH" format="2">
  <advance width="1455"/>
  <unicode hex="0048"/>
  <anchor x="225" y="0" name="H"/>
  <anchor x="640" y="-100" name="L"/>
  <anchor x="1047" y="1530" name="U"/>
  <outline>
    <contour>
      <point x="1230" y="0" type="line"/>
      <point x="1234" y="78"/>
      <point x="1273" y="233"/>
      <point x="1321" y="426" type="curve" smooth="yes"/>
      <point x="1465" y="1005" type="line" smooth="yes"/>
      <point x="1513" y="1198"/>
      <point x="1552" y="1352"/>
      <point x="1586" y="1431" type="curve"/>
      <point x="1381" y="1431" type="line"/>
      <point x="1228" y="818" type="line"/>
      <point x="508" y="818" type="line"/>
      <point x="661" y="1431" type="line"/>
      <point x="456" y="1431" type="line"/>
      <point x="452" y="1352"/>
      <point x="413" y="1197"/>
      <point x="365" y="1005" type="curve" smooth="yes"/>
      <point x="221" y="426" type="line" smooth="yes"/>
      <point x="173" y="233"/>
      <point x="134" y="78"/>
      <point x="100" y="0" type="curve"/>
      <point x="305" y="0" type="line"/>
      <point x="470" y="662" type="line"/>
      <point x="1190" y="662" type="line"/>
      <point x="1025" y="0" type="line"/>
    </contour>
  </outline>
</glyph>
<glyph name="LtnCapI" format="2">
  <advance width="955"/>
  <unicode hex="0049"/>
  <anchor x="417" y="0" name="H"/>
  <anchor x="392" y="-100" name="L"/>
  <anchor x="613" y="0" name="O"/>
  <anchor x="1215" y="1200" name="R"/>
  <anchor x="799" y="1530" name="U"/>
  <outline>
    <contour>
      <point x="436" y="1431" type="line"/>
      <point x="401" y="1289" type="line"/>
      <point x="641" y="1289" type="line"/>
      <point x="355" y="142" type="line"/>
      <point x="115" y="142" type="line"/>
      <point x="80" y="0" type="line"/>
      <point x="755" y="0" type="line"/>
      <point x="790" y="142" type="line"/>
      <point x="545" y="142" type="line"/>
      <point x="831" y="1289" type="line"/>
      <point x="1076" y="1289" type="line"/>
      <point x="1111" y="1431" type="line"/>
    </contour>
  </outline>
</glyph>
<glyph name="LtnCapM" format="2">
  <advance width="1785"/>
  <unicode hex="004D"/>
  <anchor x="800" y="-100" name="L"/>
  <anchor x="1207" y="1530" name="U"/>
  <outline>
    <contour>
      <point x="880" y="201" type="line"/>
      <point x="751" y="1431" type="line"/>
      <point x="591" y="1431" type="line"/>
      <point x="740" y="0" type="line"/>
      <point x="935" y="0" type="line"/>
      <point x="1793" y="1431" type="line"/>
      <point x="1616" y="1431" type="line"/>
    </contour>
    <contour>
      <point x="536" y="1431" type="line"/>
      <point x="536" y="1431"/>
      <point x="184" y="194"/>
      <point x="110" y="0" type="curve"/>
      <point x="295" y="0" type="line"/>
      <point x="621" y="1181" type="line"/>
      <point x="711" y="1431" type="line"/>
    </contour>
    <contour>
      <point x="1560" y="0" type="line"/>
      <point x="1579" y="194"/>
      <point x="1846" y="1431"/>
      <point x="1846" y="1431" type="curve"/>
      <point x="1671" y="1431" type="line"/>
      <point x="1641" y="1181" type="line"/>
      <point x="1375" y="0" type="line"/>
    </contour>
  </outline>
</glyph>
<glyph name="LtnCapQ" format="2">
  <advance width="1459"/>
  <unicode hex="0051"/>
  <anchor x="589" y="-270" name="L"/>
  <anchor x="1039" y="1530" name="U"/>
  <outline>
    <contour>
      <point x="1495" y="939" type="curve" smooth="yes"/>
      <point x="1495" y="1266"/>
      <point x="1306" y="1455"/>
      <point x="1026" y="1455" type="curve" smooth="yes"/>
      <point x="703" y="1455"/>
      <point x="332" y="1195"/>
      <point x="215" y="726" type="curve" smooth="yes"/>
      <point x="194" y="642"/>
      <point x="185" y="564"/>
      <point x="185" y="492" type="curve" smooth="yes"/>
      <point x="185" y="165"/>
      <point x="388" y="-25"/>
      <point x="652" y="-25" type="curve" smooth="yes"/>
      <point x="714" y="-25"/>
      <point x="781" y="-17"/>
      <point x="829" y="0" type="curve"/>
      <point x="898" y="0"/>
      <point x="1133" y="-186"/>
      <point x="1217" y="-186" type="curve" smooth="yes"/>
      <point x="1271" y="-186"/>
      <point x="1355" y="-79"/>
      <point x="1388" y="-44" type="curve"/>
      <point x="1258" y="-27"/>
      <point x="1155" y="27"/>
      <point x="1049" y="103" type="curve"/>
      <point x="1253" y="217"/>
      <point x="1495" y="528"/>
    </contour>
    <contour>
      <point x="690" y="147" type="curve" smooth="yes"/>
      <point x="492" y="147"/>
      <point x="384" y="284"/>
      <point x="384" y="508" type="curve" smooth="yes"/>
      <point x="384" y="856"/>
      <point x="609" y="1284"/>
      <point x="994" y="1284" type="curve" smooth="yes"/>
      <point x="1188" y="1284"/>
      <point x="1295" y="1149"/>
      <point x="1295" y="925" type="curve" smooth="yes"/>
      <point x="1295" y="490"/>
      <point x="985" y="147"/>
    </contour>
  </outline>
</glyph>
<glyph name="LtnCapT" format="2">
  <advance width="1245"/>
  <unicode hex="0054"/>
  <anchor x="562" y="0" name="H"/>
  <anchor x="562" y="-100" name="L"/>
  <anchor x="944" y="1530" name="U"/>
  <outline>
    <contour>
      <point x="341" y="1431" type="line"/>
      <point x="296" y="1250" type="line"/>
      <point x="380" y="1266"/>
      <point x="457" y="1269"/>
      <point x="546" y="1269" type="curve" smooth="yes"/>
      <point x="781" y="1269" type="line"/>
      <point x="571" y="426" type="line" smooth="yes"/>
      <point x="523" y="233"/>
      <point x="481" y="78"/>
      <point x="445" y="0" type="curve"/>
      <point x="675" y="0" type="line"/>
      <point x="677" y="78"/>
      <point x="713" y="233"/>
      <point x="761" y="426" type="curve" smooth="yes"/>
      <point x="971" y="1269" type="line"/>
      <point x="1211" y="1269" type="line" smooth="yes"/>
      <point x="1301" y="1269"/>
      <point x="1375" y="1266"/>
      <point x="1451" y="1250" type="curve"/>
      <point x="1496" y="1431" type="line"/>
    </contour>
  </outline>
</glyph>
<glyph name="LtnCapW" format="2">
  <advance width="2060"/>
  <unicode hex="0057"/>
  <anchor x="942" y="-100" name="L"/>
  <anchor x="1349" y="1530" name="U"/>
  <outline>
    <contour>
      <point x="1535" y="0" type="line"/>
      <point x="2107" y="1073" type="line" smooth="yes"/>
      <point x="2208" y="1263"/>
      <point x="2259" y="1350"/>
      <point x="2311" y="1431" type="curve"/>
      <point x="2081" y="1431" type="line"/>
      <point x="1431" y="127" type="line"/>
      <point x="1420" y="0" type="line"/>
    </contour>
    <contour>
      <point x="1310" y="0" type="line"/>
      <point x="1420" y="0" type="line"/>
      <point x="1461" y="127" type="line"/>
      <point x="1406" y="1431" type="line"/>
      <point x="1231" y="1431" type="line"/>
      <point x="1248" y="1279" type="line"/>
    </contour>
    <contour>
      <point x="625" y="0" type="line"/>
      <point x="1406" y="1431" type="line"/>
      <point x="1221" y="1431" type="line"/>
      <point x="521" y="127" type="line"/>
      <point x="521" y="0" type="line"/>
    </contour>
    <contour>
      <point x="546" y="1431" type="line"/>
      <point x="336" y="1431" type="line"/>
      <point x="348" y="1353"/>
      <point x="355" y="1260"/>
      <point x="362" y="1073" type="curve" smooth="yes"/>
      <point x="400" y="0" type="line"/>
      <point x="521" y="0" type="line"/>
      <point x="551" y="127" type="line"/>
    </contour>
  </outline>
</glyph>
<glyph name="LftSqrBrac" format="2">
  <advance width="770"/>
  <unicode hex="005B"/>
  <outline>
    <contour>
      <point x="484" y="-402" type="line"/>
      <point x="521" y="-255" type="line"/>
      <point x="266" y="-255" type="line"/>
      <point x="679" y="1421" type="line"/>
      <point x="934" y="1421" type="line"/>
      <point x="970" y="1568" type="line"/>
      <point x="530" y="1568" type="line"/>
      <point x="44" y="-402" type="line"/>
    </contour>
  </outline>
</glyph>
<glyph name="LtnSmF" format="2">
  <advance width="756"/>
  <unicode hex="0066"/>
  <anchor x="290" y="0" name="H"/>
  <anchor x="315" y="-100" name="L"/>
  <anchor x="908" y="1635" name="U"/>
  <outline>
    <contour>
      <point x="180" y="833" type="line"/>
      <point x="835" y="833" type="line"/>
      <point x="871" y="975" type="line"/>
      <point x="216" y="975" type="line"/>
    </contour>
    <contour>
      <point x="1106" y="1519" type="line"/>
      <point x="1062" y="1555"/>
      <point x="981" y="1588"/>
      <point x="903" y="1588" type="curve" smooth="yes"/>
      <point x="687" y="1588"/>
      <point x="533" y="1478"/>
      <point x="448" y="1147" type="curve" smooth="yes"/>
      <point x="403" y="972"/>
      <point x="244" y="334"/>
      <point x="223" y="0" type="curve"/>
      <point x="436" y="0" type="line"/>
      <point x="430" y="28"/>
      <point x="427" y="66"/>
      <point x="427" y="110" type="curve" smooth="yes"/>
      <point x="427" y="213"/>
      <point x="447" y="351"/>
      <point x="476" y="484" type="curve" smooth="yes"/>
      <point x="510" y="641"/>
      <point x="558" y="846"/>
      <point x="641" y="1186" type="curve" smooth="yes"/>
      <point x="682" y="1353"/>
      <point x="758" y="1421"/>
      <point x="862" y="1421" type="curve" smooth="yes"/>
      <point x="920" y="1421"/>
      <point x="988" y="1392"/>
      <point x="1022" y="1362" type="curve"/>
    </contour>
  </outline>
</glyph>
<glyph name="LtnSmK" format="2">
  <advance width="1059"/>
  <unicode hex="006B"/>
  <anchor x="840" y="0" name="H"/>
  <anchor x="537" y="-100" name="L"/>
  <anchor x="1225" y="1000" name="R"/>
  <anchor x="920" y="1635" name="U"/>
  <outline>
    <contour>
      <point x="295" y="0" type="line"/>
      <point x="570" y="1105" type="line" smooth="yes"/>
      <point x="614" y="1280"/>
      <point x="645" y="1482"/>
      <point x="645" y="1570" type="curve"/>
      <point x="455" y="1570" type="line"/>
      <point x="455" y="1456"/>
      <point x="424" y="1259"/>
      <point x="386" y="1107" type="curve" smooth="yes"/>
      <point x="338" y="915"/>
      <point x="110" y="0"/>
      <point x="110" y="0" type="curve"/>
    </contour>
    <contour>
      <point x="909" y="1000" type="line"/>
      <point x="885" y="863"/>
      <point x="654" y="700"/>
      <point x="379" y="539" type="curve"/>
      <point x="386" y="540"/>
      <point x="393" y="540"/>
      <point x="400" y="540" type="curve" smooth="yes"/>
      <point x="467" y="540"/>
      <point x="559" y="514"/>
      <point x="559" y="514" type="curve"/>
      <point x="902" y="702"/>
      <point x="1134" y="884"/>
      <point x="1134" y="1000" type="curve"/>
    </contour>
    <contour>
      <point x="1010" y="0" type="line"/>
      <point x="863" y="238"/>
      <point x="718" y="600"/>
      <point x="527" y="600" type="curve"/>
      <point x="385" y="529" type="line"/>
      <point x="540" y="529"/>
      <point x="667" y="246"/>
      <point x="775" y="0" type="curve"/>
    </contour>
  </outline>
</glyph>
<glyph name="LtnSmM" format="2">
  <advance width="1680"/>
  <unicode hex="006D"/>
  <anchor x="805" y="0" name="H"/>
  <anchor x="780" y="-100" name="L"/>
  <anchor x="1080" y="1100" name="U"/>
  <outline>
    <contour>
      <point x="1520" y="0" type="line"/>
      <point x="1512" y="30"/>
      <point x="1510" y="65"/>
      <point x="1510" y="102" type="curve" smooth="yes"/>
      <point x="1510" y="143"/>
      <point x="1515" y="188"/>
      <point x="1522" y="238" type="curve" smooth="yes"/>
      <point x="1536" y="327"/>
      <point x="1655" y="691"/>
      <point x="1655" y="800" type="curve" smooth="yes"/>
      <point x="1655" y="930"/>
      <point x="1594" y="1020"/>
      <point x="1445" y="1020" type="curve" smooth="yes"/>
      <point x="1292" y="1020"/>
      <point x="1124" y="867"/>
      <point x="1026" y="680" type="curve"/>
      <point x="1030" y="704"/>
      <point x="1045" y="778"/>
      <point x="1045" y="800" type="curve" smooth="yes"/>
      <point x="1045" y="932"/>
      <point x="982" y="1020"/>
      <point x="860" y="1020" type="curve" smooth="yes"/>
      <point x="717" y="1020"/>
      <point x="563" y="879"/>
      <point x="446" y="680" type="curve"/>
      <point x="466" y="753"/>
      <point x="476" y="880"/>
      <point x="476" y="961" type="curve" smooth="yes"/>
      <point x="476" y="976"/>
      <point x="476" y="989"/>
      <point x="475" y="1000" type="curve"/>
      <point x="295" y="1000" type="line"/>
      <point x="296" y="983"/>
      <point x="296" y="964"/>
      <point x="296" y="945" type="curve" smooth="yes"/>
      <point x="296" y="825"/>
      <point x="283" y="680"/>
      <point x="262" y="595" type="curve" smooth="yes"/>
      <point x="115" y="0" type="line"/>
      <point x="300" y="0" type="line"/>
      <point x="389" y="359" type="line"/>
      <point x="475" y="573"/>
      <point x="685" y="850"/>
      <point x="775" y="850" type="curve" smooth="yes"/>
      <point x="833" y="850"/>
      <point x="865" y="813"/>
      <point x="865" y="720" type="curve" smooth="yes"/>
      <point x="865" y="679"/>
      <point x="846" y="583"/>
      <point x="822" y="486" type="curve" smooth="yes"/>
      <point x="700" y="0" type="line"/>
      <point x="885" y="0" type="line"/>
      <point x="974" y="359" type="line"/>
      <point x="1032" y="531"/>
      <point x="1242" y="850"/>
      <point x="1357" y="850" type="curve" smooth="yes"/>
      <point x="1425" y="850"/>
      <point x="1457" y="813"/>
      <point x="1457" y="720" type="curve" smooth="yes"/>
      <point x="1457" y="632"/>
      <point x="1349" y="319"/>
      <point x="1335" y="203" type="curve" smooth="yes"/>
      <point x="1330" y="158"/>
      <point x="1327" y="115"/>
      <point x="1327" y="77" type="curve" smooth="yes"/>
      <point x="1327" y="48"/>
      <point x="1331" y="21"/>
      <point x="1335" y="0" type="curve"/>
    </contour>
  </outline>
</glyph>
<glyph name="LtnSmN" format="2">
  <advance width="1195"/>
  <unicode hex="006E"/>
  <anchor x="540" y="0" name="H"/>
  <anchor x="565" y="-100" name="L"/>
  <anchor x="815" y="1100" name="U"/>
  <outline>
    <contour>
      <point x="1060" y="0" type="line"/>
      <point x="1052" y="30"/>
      <point x="1050" y="65"/>
      <point x="1050" y="102" type="curve" smooth="yes"/>
      <point x="1050" y="143"/>
      <point x="1055" y="188"/>
      <point x="1062" y="238" type="curve" smooth="yes"/>
      <point x="1075" y="327"/>
      <point x="1175" y="636"/>
      <point x="1175" y="745" type="curve" smooth="yes"/>
      <point x="1175" y="917"/>
      <point x="1100" y="1020"/>
      <point x="935" y="1020" type="curve" smooth="yes"/>
      <point x="755" y="1020"/>
      <point x="581" y="870"/>
      <point x="445" y="672" type="curve"/>
      <point x="463" y="740"/>
      <point x="477" y="873"/>
      <point x="477" y="957" type="curve" smooth="yes"/>
      <point x="477" y="973"/>
      <point x="476" y="988"/>
      <point x="475" y="1000" type="curve"/>
      <point x="295" y="1000" type="line"/>
      <point x="295" y="961" type="line" smooth="yes"/>
      <point x="295" y="833"/>
      <point x="283" y="679"/>
      <point x="262" y="595" type="curve" smooth="yes"/>
      <point x="115" y="0" type="line"/>
      <point x="300" y="0" type="line"/>
      <point x="392" y="370" type="line"/>
      <point x="478" y="573"/>
      <point x="708" y="850"/>
      <point x="835" y="850" type="curve" smooth="yes"/>
      <point x="927" y="850"/>
      <point x="975" y="798"/>
      <point x="975" y="680" type="curve" smooth="yes"/>
      <point x="975" y="592"/>
      <point x="888" y="319"/>
      <point x="875" y="203" type="curve" smooth="yes"/>
      <point x="870" y="158"/>
      <point x="867" y="115"/>
      <point x="867" y="77" type="curve" smooth="yes"/>
      <point x="867" y="48"/>
      <point x="871" y="21"/>
      <point x="875" y="0" type="curve"/>
    </contour>
  </outline>
</glyph>
<glyph name="LtnSmP" format="2">
  <advance width="1185"/>
  <unicode hex="0070"/>
  <anchor x="105" y="-435" name="H"/>
  <anchor x="405" y="-500" name="L"/>
  <anchor x="1360" y="1000" name="R"/>
  <anchor x="805" y="1100" name="U"/>
  <outline>
    <contour>
      <point x="215" y="-480" type="line"/>
      <point x="215" y="-388"/>
      <point x="229" y="-282"/>
      <point x="255" y="-175" type="curve" smooth="yes"/>
      <point x="320" y="85" type="line"/>
      <point x="399" y="20"/>
      <point x="468" y="-25"/>
      <point x="575" y="-25" type="curve" smooth="yes"/>
      <point x="685" y="-25"/>
      <point x="797" y="9"/>
      <point x="895" y="85" type="curve" smooth="yes"/>
      <point x="1063" y="215"/>
      <point x="1185" y="438"/>
      <point x="1185" y="680" type="curve" smooth="yes"/>
      <point x="1185" y="878"/>
      <point x="1101" y="1020"/>
      <point x="920" y="1020" type="curve" smooth="yes"/>
      <point x="757" y="1020"/>
      <point x="559" y="842"/>
      <point x="452" y="680" type="curve"/>
      <point x="468" y="760"/>
      <point x="477" y="860"/>
      <point x="477" y="940" type="curve" smooth="yes"/>
      <point x="477" y="962"/>
      <point x="477" y="982"/>
      <point x="475" y="1000" type="curve"/>
      <point x="295" y="1000" type="line"/>
      <point x="295" y="971" type="line" smooth="yes"/>
      <point x="295" y="819"/>
      <point x="273" y="625"/>
      <point x="235" y="475" type="curve" smooth="yes"/>
      <point x="70" y="-175" type="line" smooth="yes"/>
      <point x="43" y="-281"/>
      <point x="20" y="-398"/>
      <point x="20" y="-480" type="curve"/>
    </contour>
    <contour>
      <point x="407" y="432" type="line"/>
      <point x="544" y="656"/>
      <point x="732" y="850"/>
      <point x="840" y="850" type="curve" smooth="yes"/>
      <point x="939" y="850"/>
      <point x="990" y="763"/>
      <point x="990" y="630" type="curve" smooth="yes"/>
      <point x="990" y="491"/>
      <point x="926" y="322"/>
      <point x="815" y="220" type="curve" smooth="yes"/>
      <point x="759" y="168"/>
      <point x="693" y="135"/>
      <point x="615" y="135" type="curve" smooth="yes"/>
      <point x="523" y="135"/>
      <point x="479" y="161"/>
      <point x="365" y="255" type="curve"/>
    </contour>
  </outline>
</glyph>
<glyph name="LtnSmR" format="2">
  <advance width="910"/>
  <unicode hex="0072"/>
  <anchor x="210" y="0" name="H"/>
  <anchor x="220" y="-100" name="L"/>
  <anchor x="670" y="1100" name="U"/>
  <outline>
    <contour>
      <point x="300" y="0" type="line"/>
      <point x="402" y="415" type="line"/>
      <point x="502" y="602"/>
      <point x="703" y="850"/>
      <point x="785" y="850" type="curve" smooth="yes"/>
      <point x="831" y="850"/>
      <point x="855" y="801"/>
      <point x="855" y="740" type="curve" smooth="yes"/>
      <point x="855" y="715"/>
      <point x="852" y="689"/>
      <point x="845" y="660" type="curve"/>
      <point x="1010" y="690" type="line"/>
      <point x="1022" y="737"/>
      <point x="1030" y="783"/>
      <point x="1030" y="825" type="curve" smooth="yes"/>
      <point x="1030" y="935"/>
      <point x="986" y="1020"/>
      <point x="865" y="1020" type="curve" smooth="yes"/>
      <point x="735" y="1020"/>
      <point x="575" y="867"/>
      <point x="445" y="675" type="curve"/>
      <point x="467" y="773"/>
      <point x="475" y="929"/>
      <point x="475" y="1000" type="curve"/>
      <point x="295" y="1000" type="line"/>
      <point x="295" y="961" type="line" smooth="yes"/>
      <point x="295" y="833"/>
      <point x="283" y="679"/>
      <point x="262" y="595" type="curve" smooth="yes"/>
      <point x="115" y="0" type="line"/>
    </contour>
  </outline>
</glyph>
<glyph name="LtnSmU" format="2">
  <advance width="1175"/>
  <unicode hex="0075"/>
  <anchor x="465" y="0" name="H"/>
  <anchor x="504" y="-100" name="L"/>
  <anchor x="640" y="0" name="O"/>
  <anchor x="1375" y="1000" name="R"/>
  <anchor x="804" y="1100" name="U"/>
  <outline>
    <contour>
      <point x="1040" y="0" type="line"/>
      <point x="1036" y="29"/>
      <point x="1035" y="62"/>
      <point x="1035" y="100" type="curve" smooth="yes"/>
      <point x="1035" y="206"/>
      <point x="1054" y="341"/>
      <point x="1080" y="455" type="curve" smooth="yes"/>
      <point x="1135" y="689"/>
      <point x="1197" y="895"/>
      <point x="1205" y="1000" type="curve"/>
      <point x="1010" y="1000" type="line"/>
      <point x="1003" y="882"/>
      <point x="971" y="769"/>
      <point x="920" y="565" type="curve"/>
      <point x="827" y="376"/>
      <point x="573" y="135"/>
      <point x="475" y="135" type="curve" smooth="yes"/>
      <point x="409" y="135"/>
      <point x="365" y="181"/>
      <point x="365" y="280" type="curve" smooth="yes"/>
      <point x="365" y="347"/>
      <point x="407" y="500"/>
      <point x="459" y="702" type="curve" smooth="yes"/>
      <point x="494" y="837"/>
      <point x="515" y="925"/>
      <point x="520" y="1000" type="curve"/>
      <point x="325" y="1000" type="line"/>
      <point x="313" y="882"/>
      <point x="295" y="809"/>
      <point x="265" y="685" type="curve" smooth="yes"/>
      <point x="195" y="395" type="line" smooth="yes"/>
      <point x="179" y="330"/>
      <point x="170" y="275"/>
      <point x="170" y="225" type="curve" smooth="yes"/>
      <point x="170" y="60"/>
      <point x="257" y="-25"/>
      <point x="410" y="-25" type="curve" smooth="yes"/>
      <point x="551" y="-25"/>
      <point x="745" y="118"/>
      <point x="880" y="305" type="curve"/>
      <point x="861" y="196"/>
      <point x="860" y="98"/>
      <point x="860" y="0" type="curve"/>
    </contour>
  </outline>
</glyph>
<glyph name="LtnSmW" format="2">
  <advance width="1555"/>
  <unicode hex="0077"/>
  <anchor x="690" y="-100" name="L"/>
  <anchor x="990" y="1100" name="U"/>
  <outline>
    <contour>
      <point x="858" y="1000" type="line"/>
      <point x="743" y="739"/>
      <point x="588" y="466"/>
      <point x="388" y="181" type="curve"/>
      <point x="417" y="339"/>
      <point x="430" y="500"/>
      <point x="430" y="644" type="curve" smooth="yes"/>
      <point x="430" y="784"/>
      <point x="418" y="908"/>
      <point x="395" y="1000" type="curve"/>
      <point x="195" y="1000" type="line"/>
      <point x="234" y="873"/>
      <point x="256" y="688"/>
      <point x="256" y="472" type="curve" smooth="yes"/>
      <point x="256" y="326"/>
      <point x="246" y="166"/>
      <point x="225" y="0" type="curve"/>
      <point x="425" y="0" type="line"/>
      <point x="632" y="298"/>
      <point x="825" y="583"/>
      <point x="896" y="765" type="curve"/>
      <point x="920" y="478"/>
      <point x="912" y="233"/>
      <point x="915" y="0" type="curve"/>
      <point x="1115" y="0" type="line"/>
      <point x="1362" y="330"/>
      <point x="1642" y="777"/>
      <point x="1645" y="1000" type="curve"/>
      <point x="1445" y="1000" type="line"/>
      <point x="1445" y="990" type="line"/>
      <point x="1445" y="797"/>
      <point x="1242" y="417"/>
      <point x="1063" y="181" type="curve"/>
      <point x="1064" y="221"/>
      <point x="1064" y="260"/>
      <point x="1064" y="298" type="curve" smooth="yes"/>
      <point x="1064" y="577"/>
      <point x="1046" y="811"/>
      <point x="1020" y="1000" type="curve"/>
    </contour>
  </outline>
</glyph>
<glyph name="Tilde" format="2">
  <advance width="1095"/>
  <unicode hex="007E"/>
  <outline>
    <contour>
      <point x="156" y="368" type="line"/>
      <point x="173" y="416"/>
      <point x="215" y="456"/>
      <point x="293" y="456" type="curve" smooth="yes"/>
      <point x="468" y="456"/>
      <point x="643" y="353"/>
      <point x="873" y="353" type="curve" smooth="yes"/>
      <point x="1032" y="353"/>
      <point x="1137" y="472"/>
      <point x="1169" y="598" type="curve"/>
      <point x="1064" y="598" type="line"/>
      <point x="1045" y="553"/>
      <point x="1002" y="500"/>
      <point x="919" y="500" type="curve" smooth="yes"/>
      <point x="683" y="500"/>
      <point x="551" y="603"/>
      <point x="330" y="603" type="curve" smooth="yes"/>
      <point x="184" y="603"/>
      <point x="81" y="487"/>
      <point x="51" y="368" type="curve"/>
    </contour>
  </outline>
</glyph>
<glyph name="CombCircum" format="2">
  <unicode hex="0302"/>
  <anchor x="-221" y="1635" name="U"/>
  <anchor x="-320" y="1100" name="_U"/>
  <outline>
    <contour>
      <point x="-619" y="1147" type="line"/>
      <point x="-275" y="1421" type="line"/>
      <point x="-69" y="1147" type="line"/>
      <point x="80" y="1147" type="line"/>
      <point x="-174" y="1568" type="line"/>
      <point x="-344" y="1568" type="line"/>
      <point x="-769" y="1147" type="line"/>
    </contour>
  </outline>
</glyph>
<glyph name="CombTilde" format="2">
  <unicode hex="0303"/>
  <anchor x="-290" y="1475" name="U"/>
  <anchor x="-385" y="1100" name="_U"/>
  <outline>
    <contour>
      <point x="-646" y="1181" type="line"/>
      <point x="-629" y="1229"/>
      <point x="-589" y="1269"/>
      <point x="-540" y="1269" type="curve" smooth="yes"/>
      <point x="-503" y="1269"/>
      <point x="-466" y="1253"/>
      <point x="-398" y="1218" type="curve" smooth="yes"/>
      <point x="-344" y="1190"/>
      <point x="-296" y="1171"/>
      <point x="-243" y="1171" type="curve" smooth="yes"/>
      <point x="-120" y="1171"/>
      <point x="-15" y="1286"/>
      <point x="16" y="1411" type="curve"/>
      <point x="-89" y="1411" type="line"/>
      <point x="-107" y="1366"/>
      <point x="-147" y="1323"/>
      <point x="-194" y="1323" type="curve" smooth="yes"/>
      <point x="-236" y="1323"/>
      <point x="-273" y="1342"/>
      <point x="-338" y="1370" type="curve" smooth="yes"/>
      <point x="-401" y="1397"/>
      <point x="-442" y="1421"/>
      <point x="-498" y="1421" type="curve" smooth="yes"/>
      <point x="-617" y="1421"/>
      <point x="-721" y="1300"/>
      <point x="-751" y="1181" type="curve"/>
    </contour>
  </outline>
</glyph>
<glyph name="CombRingAbv" format="2">
  <unicode hex="030A"/>
  <anchor x="-221" y="1635" name="U"/>
  <anchor x="-385" y="1100" name="_U"/>
  <outline>
    <contour>
      <point x="-377" y="1259" type="curve" smooth="yes"/>
      <point x="-427" y="1259"/>
      <point x="-456" y="1287"/>
      <point x="-456" y="1329" type="curve" smooth="yes"/>
      <point x="-456" y="1400"/>
      <point x="-393" y="1455"/>
      <point x="-328" y="1455" type="curve" smooth="yes"/>
      <point x="-278" y="1455"/>
      <point x="-248" y="1428"/>
      <point x="-248" y="1385" type="curve" smooth="yes"/>
      <point x="-248" y="1314"/>
      <point x="-312" y="1259"/>
    </contour>
    <contour>
      <point x="-573" y="1320" type="curve" smooth="yes"/>
      <point x="-573" y="1224"/>
      <point x="-498" y="1147"/>
      <point x="-395" y="1147" type="curve" smooth="yes"/>
      <point x="-257" y="1147"/>
      <point x="-131" y="1263"/>
      <point x="-131" y="1394" type="curve" smooth="yes"/>
      <point x="-131" y="1491"/>
      <point x="-206" y="1568"/>
      <point x="-310" y="1568" type="curve" smooth="yes"/>
      <point x="-448" y="1568"/>
      <point x="-573" y="1451"/>
    </contour>
  </outline>
</glyph>
